<svg width="56" height="56" viewBox="0 0 56 56" fill="none" xmlns="http://www.w3.org/2000/svg">
<rect width="56" height="56" rx="11.2" fill="white"/>
<path d="M33.7229 29.754L27.0341 32.732L25.4473 33.4385L17.5137 36.9707C17.378 37.0311 17.2842 37.1567 17.2629 37.3009L17.2583 37.3639V46.5031C17.2584 46.8144 17.5789 47.0225 17.8633 46.896L34.0729 39.6789L34.1284 39.6495C34.2516 39.5714 34.3284 39.4348 34.3284 39.2861V37.3926V35.9797V30.1469C34.3283 29.8355 34.0074 29.6274 33.7229 29.754Z" fill="#3B3D2C"/>
<path fill-rule="evenodd" clip-rule="evenodd" d="M25.4475 32.0252L33.1982 28.5743C34.3362 28.0678 35.6189 28.9008 35.619 30.1464V36.5539L37.6533 37.4597C37.9378 37.5862 38.2582 37.3782 38.2583 37.0668V27.9277C38.2583 27.7578 38.1585 27.6035 38.0033 27.5344L30.0079 23.9748L28.4211 23.2683L21.1303 20.0224L19.8396 19.4478L17.8633 18.5679C17.5788 18.4414 17.2584 18.6494 17.2583 18.9607V28.0999C17.2583 28.2699 17.3585 28.4236 17.5137 28.4927L25.4475 32.0252ZM19.8396 25.8521L19.8434 25.9678C19.8458 26.0058 19.8495 26.0434 19.8543 26.0806C19.8446 26.0062 19.8396 25.93 19.8396 25.8521Z" fill="#3B3D2C"/>
<path fill-rule="evenodd" clip-rule="evenodd" d="M30.0082 22.5619L21.1309 18.6095V16.713L21.1355 16.65C21.1568 16.5058 21.2505 16.3802 21.3863 16.3198L37.5955 9.10312C37.88 8.97645 38.2008 9.18457 38.2009 9.49595V18.6351C38.2009 18.7839 38.1241 18.9205 38.0009 18.9985L37.9455 19.028L30.0082 22.5619Z" fill="#3B3D2C"/>
</svg>
