<svg width="116" height="36" viewBox="0 0 116 36" fill="none" xmlns="http://www.w3.org/2000/svg">
<path d="M18.435 18.1114L14.1958 19.9988L13.1901 20.4466L8.1619 22.6852C8.07584 22.7235 8.01643 22.8031 8.00293 22.8945L8 22.9344V28.7267C8.00007 28.924 8.20316 29.0559 8.38344 28.9757L18.6569 24.4016L18.692 24.383C18.7701 24.3335 18.8187 24.2469 18.8187 24.1526V22.9526V22.0571V18.3604C18.8187 18.163 18.6154 18.0311 18.435 18.1114Z" fill="currentColor"/>
<path fill-rule="evenodd" clip-rule="evenodd" d="M13.1902 19.5519L18.1025 17.3648C18.8237 17.0438 19.6367 17.5717 19.6367 18.3612V22.4221L20.926 22.9962C21.1063 23.0764 21.3094 22.9445 21.3095 22.7472V16.9549C21.3095 16.8473 21.2462 16.7495 21.1479 16.7057L16.0805 14.4497L15.0748 14.0019L10.454 11.9447L9.63599 11.5805L8.38344 11.0229C8.20316 10.9427 8.00005 11.0745 8 11.2718V17.0641C8 17.1718 8.06351 17.2693 8.1619 17.3131L13.1902 19.5519ZM9.63599 15.6395L9.63839 15.7128C9.63995 15.7369 9.64224 15.7607 9.6453 15.7843C9.63917 15.7371 9.63599 15.6888 9.63599 15.6395Z" fill="currentColor"/>
<path fill-rule="evenodd" clip-rule="evenodd" d="M16.0804 13.5538L10.4541 11.0489V9.84692L10.457 9.80698C10.4705 9.71558 10.5299 9.636 10.616 9.59769L20.8891 5.02389C21.0695 4.94361 21.2728 5.07551 21.2729 5.27285V11.0651C21.2729 11.1594 21.2242 11.246 21.1461 11.2955L21.111 11.3141L16.0804 13.5538Z" fill="currentColor"/>
<path d="M34.76 11.896C36.254 11.896 37.424 12.202 38.27 12.85C39.17 13.516 39.674 14.542 39.8 15.946H37.856C37.676 15.118 37.352 14.506 36.848 14.146C36.344 13.768 35.624 13.588 34.652 13.588C33.806 13.588 33.158 13.714 32.708 13.966C32.15 14.254 31.88 14.722 31.88 15.37C31.88 15.946 32.186 16.396 32.834 16.738C33.122 16.9 33.86 17.17 35.066 17.53C36.794 18.07 37.928 18.484 38.432 18.79C39.53 19.456 40.088 20.374 40.088 21.562C40.088 22.714 39.638 23.614 38.738 24.28C37.838 24.928 36.578 25.252 34.958 25.252C33.392 25.252 32.168 24.928 31.286 24.316C30.224 23.56 29.648 22.372 29.54 20.752H31.484C31.628 21.76 31.988 22.498 32.564 22.93C33.086 23.326 33.878 23.524 34.958 23.524C35.93 23.524 36.704 23.344 37.28 23.02C37.856 22.696 38.144 22.246 38.144 21.67C38.144 20.95 37.73 20.392 36.92 19.978C36.632 19.834 35.786 19.546 34.364 19.114C32.78 18.61 31.808 18.268 31.412 18.052C30.422 17.458 29.936 16.594 29.936 15.478C29.936 14.344 30.404 13.462 31.358 12.814C32.258 12.202 33.392 11.896 34.76 11.896ZM45.6763 15.442C47.1883 15.442 48.3583 15.946 49.1503 16.99C49.8703 17.926 50.2483 19.222 50.2663 20.878H43.2103C43.2823 21.778 43.5163 22.48 43.9483 22.966C44.3803 23.434 44.9743 23.686 45.7303 23.686C46.3963 23.686 46.9363 23.524 47.3503 23.218C47.6743 22.966 47.9443 22.552 48.1963 22.012H50.1043C49.8883 22.876 49.4743 23.614 48.8263 24.19C48.0163 24.892 46.9903 25.252 45.7483 25.252C44.3803 25.252 43.2823 24.82 42.4903 23.974C41.6263 23.074 41.1943 21.868 41.1943 20.338C41.1943 18.952 41.5903 17.8 42.4183 16.864C43.2103 15.91 44.3083 15.442 45.6763 15.442ZM45.7303 17.008C45.0103 17.008 44.4523 17.206 44.0203 17.638C43.6243 18.052 43.3543 18.646 43.2463 19.438H48.2683C48.0883 17.818 47.2423 17.008 45.7303 17.008ZM51.8945 11.896H53.8025V19.528L57.8345 15.694H60.3005L56.1785 19.528L60.6605 25H58.2125L54.8645 20.752L53.8025 21.742V25H51.8945V11.896ZM66.0222 15.442C67.4262 15.442 68.5602 15.91 69.4062 16.846C70.2342 17.764 70.6662 18.934 70.6662 20.356C70.6662 21.76 70.2522 22.93 69.4242 23.83C68.5602 24.766 67.4262 25.252 66.0222 25.252C64.6182 25.252 63.4842 24.766 62.6202 23.83C61.7922 22.93 61.3782 21.76 61.3782 20.356C61.3782 18.934 61.7922 17.764 62.6382 16.846C63.4842 15.91 64.6182 15.442 66.0222 15.442ZM66.0222 17.008C65.1402 17.008 64.4562 17.35 63.9702 18.052C63.5382 18.646 63.3402 19.42 63.3402 20.356C63.3402 21.292 63.5382 22.048 63.9702 22.642C64.4562 23.326 65.1402 23.686 66.0222 23.686C66.9042 23.686 67.5882 23.326 68.0922 22.642C68.5242 22.03 68.7402 21.274 68.7402 20.356C68.7402 19.42 68.5242 18.646 68.0922 18.052C67.5882 17.35 66.9042 17.008 66.0222 17.008ZM71.6684 12.148H82.1984V13.822H77.9144V25H75.9704V13.822H71.6684V12.148ZM87.7642 15.442C89.1322 15.442 90.1402 15.784 90.7882 16.468C91.3462 17.062 91.6342 17.926 91.6342 19.06V25H89.8702V23.686C89.5102 24.154 89.0602 24.532 88.5202 24.802C87.9082 25.09 87.1882 25.252 86.3602 25.252C85.3882 25.252 84.6322 25 84.0922 24.514C83.4982 24.028 83.2102 23.398 83.2102 22.624C83.2102 21.58 83.6242 20.77 84.4522 20.212C85.2082 19.672 86.2882 19.402 87.6562 19.366L89.7442 19.312V18.934C89.7442 17.638 89.0422 16.99 87.6382 16.99C87.0442 16.99 86.5582 17.098 86.1982 17.314C85.7662 17.566 85.4962 17.944 85.3882 18.466L83.4982 18.304C83.6962 17.296 84.2002 16.54 84.9922 16.072C85.6762 15.64 86.6122 15.442 87.7642 15.442ZM89.7442 20.698L87.7822 20.752C86.0362 20.788 85.1722 21.4 85.1722 22.552C85.1722 22.912 85.3162 23.2 85.6222 23.434C85.9102 23.668 86.3062 23.794 86.7922 23.794C87.6022 23.794 88.2862 23.542 88.8622 23.056C89.4382 22.57 89.7442 21.958 89.7442 21.238V20.698ZM94.0343 11.896H95.9423V25H94.0343V11.896ZM98.3183 11.896H100.226V19.528L104.258 15.694H106.724L102.602 19.528L107.084 25H104.636L101.288 20.752L100.226 21.742V25H98.3183V11.896Z" fill="currentColor"/>
</svg>
