<svg width="46" height="46" viewBox="0 0 46 46" fill="none" xmlns="http://www.w3.org/2000/svg">
<path fill-rule="evenodd" clip-rule="evenodd" d="M31.2355 29.7817C31.3905 33.2931 28.5565 36.2625 24.9061 36.4117C24.6372 36.423 11.5291 36.3966 11.5291 36.3966C7.89637 36.6724 4.71698 34.0619 4.43044 30.5637C4.40885 30.303 4.41474 16.2383 4.41474 16.2383C4.25381 12.723 7.08386 9.74615 10.7362 9.59126C11.009 9.57803 24.0995 9.60259 24.0995 9.60259C27.7499 9.33059 30.9391 11.9599 31.2217 15.4752C31.2414 15.7283 31.2355 29.7817 31.2355 29.7817Z" stroke="currentColor" stroke-width="2.875" stroke-linecap="round" stroke-linejoin="round"/>
<path d="M31.2412 19.1279L37.5528 13.9624C39.1168 12.6821 41.4628 13.7976 41.4609 15.8159L41.4379 29.9014C41.436 31.9197 39.088 33.0256 37.5279 31.7453L31.2412 26.5799" stroke="currentColor" stroke-width="2.875" stroke-linecap="round" stroke-linejoin="round"/>
</svg>
