<?xml version="1.0" standalone="no"?><!DOCTYPE svg PUBLIC "-//W3C//DTD SVG 1.1//EN" "http://www.w3.org/Graphics/SVG/1.1/DTD/svg11.dtd"><svg t="1764151581782" class="icon" viewBox="0 0 1024 1024" version="1.1" xmlns="http://www.w3.org/2000/svg" p-id="5764" xmlns:xlink="http://www.w3.org/1999/xlink" width="256" height="256"><path d="M769.365333 911.018667H255.317333a175.786667 175.786667 0 0 1-68.266666-13.653334 183.296 183.296 0 0 1-54.613334-37.205333 183.296 183.296 0 0 1-37.205333-55.296 177.152 177.152 0 0 1-13.653333-68.266667v-303.786666a173.738667 173.738667 0 0 1 50.858666-122.88A170.666667 170.666667 0 0 1 187.733333 273.066667a170.666667 170.666667 0 0 1 68.266667-13.653334h24.576a174.08 174.08 0 0 1 173.738667-173.738666h117.418666a174.08 174.08 0 0 1 173.738667 173.738666h24.576a170.666667 170.666667 0 0 1 68.266667 13.653334 166.570667 166.570667 0 0 1 54.954666 37.205333 170.666667 170.666667 0 0 1 37.546667 55.296 174.421333 174.421333 0 0 1 13.653333 68.266667v303.445333a177.152 177.152 0 0 1-13.653333 68.266667 173.738667 173.738667 0 0 1-92.501333 92.501333 177.152 177.152 0 0 1-68.949334 12.970667zM255.317333 327.338667a104.448 104.448 0 0 0-40.96 8.192 102.4 102.4 0 0 0-34.133333 22.528 110.250667 110.250667 0 0 0-22.869333 34.133333 106.154667 106.154667 0 0 0-8.192 41.301333v303.786667a105.813333 105.813333 0 0 0 8.192 40.96 102.4 102.4 0 0 0 22.869333 34.133333 96.597333 96.597333 0 0 0 34.133333 22.528 104.789333 104.789333 0 0 0 40.96 8.533334h514.048a106.154667 106.154667 0 0 0 40.96-8.533334 96.597333 96.597333 0 0 0 34.133334-22.528 102.4 102.4 0 0 0 22.528-34.133333 106.154667 106.154667 0 0 0 8.533333-40.96v-304.469333a106.496 106.496 0 0 0-8.533333-41.301334 108.885333 108.885333 0 0 0-22.528-34.133333 106.837333 106.837333 0 0 0-34.133334-22.528 105.813333 105.813333 0 0 0-40.96-8.192h-58.709333a34.133333 34.133333 0 0 1-34.133333-34.133333v-34.133334a105.813333 105.813333 0 0 0-105.472-105.472h-117.418667a105.813333 105.813333 0 0 0-105.472 105.130667v34.133333a34.133333 34.133333 0 0 1-34.133333 34.133334z" fill="currentColor" p-id="5765"></path><path d="M512 727.722667a170.666667 170.666667 0 1 1 170.666667-170.666667 172.373333 172.373333 0 0 1-170.666667 170.666667z m0-276.138667a102.4 102.4 0 1 0 102.4 104.106667 104.448 104.448 0 0 0-102.4-104.106667z" fill="currentColor" p-id="5766"></path></svg>