<svg width="27" height="28" viewBox="0 0 27 28" fill="none" xmlns="http://www.w3.org/2000/svg">
<path d="M14.2568 0C15.8025 5.99311 20.4825 10.6732 26.4756 12.2188V14.2568C20.4824 15.8024 15.8024 20.4824 14.2568 26.4756L13.9941 27.4941L11.9561 26.9688L12.2188 25.9502C13.694 20.2297 17.7111 15.5744 23.0146 13.2373C18.6516 11.3145 15.1598 7.82315 13.2373 3.45996C11.3147 7.8233 7.82328 11.3146 3.45996 13.2373C6.5176 14.5846 9.14779 16.7022 11.1094 19.3506L11.7354 20.1953L10.0449 21.4482L9.41895 20.6025C7.13604 17.5204 3.83707 15.2462 0 14.2568V12.2188C5.99309 10.6731 10.6732 5.99311 12.2188 0H14.2568ZM22.7061 0.262695C22.7062 1.87285 24.5573 3.76632 26.2109 3.7666C24.4929 3.76687 22.7063 5.64173 22.7061 7.27148C22.7058 5.63187 20.8081 3.76677 19.2021 3.7666C20.8712 3.76643 22.7059 1.8729 22.7061 0.262695Z" fill="#262626"/>
</svg>
