<svg width="22" height="19" viewBox="0 0 22 19" fill="none" xmlns="http://www.w3.org/2000/svg">
<path d="M1.54883 1.84003C3.89351 -0.504439 7.63294 -0.663751 9.97754 1.68085L10.5596 2.36151L11.2109 1.68085C13.5011 -0.609277 17.0515 -0.502726 19.4062 1.68085L19.5723 1.84003C21.8623 4.1301 21.3016 8.70783 19.1182 11.0627L18.8311 11.3664L18.5107 11.6926C17.2786 12.93 15.3897 14.6238 12.8447 16.7746L11.3916 17.9933C10.8901 18.4107 10.1599 18.404 9.66602 17.9777L7.87207 16.4211L6.27539 15.0158C4.37682 13.3323 2.9516 12.0143 2 11.0627C-0.34462 8.718 -0.795822 4.18468 1.54883 1.84003ZM18.499 2.65936C16.6181 0.915116 13.8878 0.890207 12.1748 2.60272L10.5049 4.34979L8.99902 2.59003C7.21415 0.843025 4.34619 0.930356 2.49219 2.78436C0.770375 4.50624 1.01186 8.18783 2.94336 10.1193L3.28906 10.4611C4.26472 11.4135 5.65851 12.6908 7.46484 14.2873L8.74707 15.4133L10.5381 16.968L11.9834 15.756L13.0215 14.8723C15.0173 13.1619 16.5313 11.7889 17.5527 10.7639L17.8613 10.4494L18.1396 10.1555C19.9898 8.15989 20.2646 4.42054 18.6465 2.80194L18.499 2.65936Z" fill="#262626"/>
</svg>
