<svg width="46" height="46" viewBox="0 0 46 46" fill="none" xmlns="http://www.w3.org/2000/svg">
<path fill-rule="evenodd" clip-rule="evenodd" d="M4.79555 23.0001C4.7902 25.3569 4.68503 28.5715 6.14312 29.7731C7.50316 30.8939 8.46036 30.6051 10.9434 30.7874C13.4282 30.9713 18.6723 38.2755 22.715 35.9651C24.8005 34.3252 24.9556 30.8871 24.9556 23.0001C24.9556 15.1131 24.8005 11.675 22.715 10.035C18.6723 7.7229 13.4282 15.0289 10.9434 15.2128C8.46036 15.395 7.50316 15.1062 6.14312 16.227C4.68503 17.4286 4.7902 20.6433 4.79555 23.0001Z" stroke="currentColor" stroke-width="2.87498" stroke-linecap="round" stroke-linejoin="round"/>
<path d="M37.5361 11.3157C42.4237 18.3517 42.4398 27.6329 37.5361 34.6827" stroke="currentColor" stroke-width="2.87498" stroke-linecap="round" stroke-linejoin="round"/>
<path d="M32.7383 15.9358C35.2516 20.3262 35.2516 25.6879 32.7383 30.0646" stroke="currentColor" stroke-width="2.87498" stroke-linecap="round" stroke-linejoin="round"/>
</svg>
