<svg width="46" height="46" viewBox="0 0 46 46" fill="none" xmlns="http://www.w3.org/2000/svg">
<path fill-rule="evenodd" clip-rule="evenodd" d="M27.8544 18.1454L14.784 31.2167C14.4443 31.02 14.1225 30.8948 13.8364 30.877C11.3511 30.6981 10.3855 30.9842 9.02665 29.8219C7.56048 28.5702 7.66776 25.2264 7.66776 22.7767C7.66776 20.3269 7.56048 16.9831 9.02665 15.7314C10.3855 14.5691 11.3511 14.8731 13.8364 14.6764C16.3217 14.4797 21.5785 6.89794 25.6373 9.29406C27.2822 10.6352 27.7292 13.1386 27.8544 18.1454Z" stroke="currentColor" stroke-width="2.875" stroke-linecap="round" stroke-linejoin="round"/>
<path d="M27.8547 26.6748C27.7832 32.1823 27.3541 34.8645 25.6376 36.2593C23.7602 37.3679 21.6325 36.3487 19.6299 34.9003" stroke="currentColor" stroke-width="2.875" stroke-linecap="round" stroke-linejoin="round"/>
<path d="M7.66895 38.3334L14.7852 31.2166L27.8556 18.1453L38.3333 7.66675" stroke="currentColor" stroke-width="2.875" stroke-linecap="round" stroke-linejoin="round"/>
</svg>
