<svg width="16" height="16" viewBox="0 0 16 16" fill="none" xmlns="http://www.w3.org/2000/svg">
<path d="M7.84277 0C8.70908 0 9.412 0.702073 9.41211 1.56836V6.27441H14.1182C14.9843 6.27445 15.6862 6.97672 15.6865 7.84277C15.6865 8.70913 14.9845 9.41207 14.1182 9.41211H9.41211V14.1182C9.41207 14.9845 8.70913 15.6865 7.84277 15.6865C6.97666 15.6862 6.27445 14.9843 6.27441 14.1182V9.41211H1.56836C0.70201 9.41208 0 8.70913 0 7.84277C0.000355176 6.97672 0.702229 6.27445 1.56836 6.27441H6.27441V1.56836C6.27452 0.702246 6.9767 0.00028068 7.84277 0Z" fill="#555555"/>
</svg>
