<svg width="20" height="20" viewBox="0 0 20 20" fill="none" xmlns="http://www.w3.org/2000/svg">
<path d="M16.0672 15.1832C16.1252 15.2412 16.1713 15.3102 16.2027 15.386C16.2342 15.4619 16.2503 15.5432 16.2503 15.6253C16.2503 15.7075 16.2342 15.7888 16.2027 15.8647C16.1713 15.9405 16.1252 16.0095 16.0672 16.0675C16.0091 16.1256 15.9402 16.1717 15.8643 16.2031C15.7884 16.2345 15.7071 16.2507 15.625 16.2507C15.5429 16.2507 15.4615 16.2345 15.3857 16.2031C15.3098 16.1717 15.2409 16.1256 15.1828 16.0675L9.99998 10.8839L4.81717 16.0675C4.69989 16.1848 4.54083 16.2507 4.37498 16.2507C4.20913 16.2507 4.05007 16.1848 3.93279 16.0675C3.81552 15.9503 3.74963 15.7912 3.74963 15.6253C3.74963 15.4595 3.81552 15.3004 3.93279 15.1832L9.11639 10.0003L3.93279 4.81753C3.81552 4.70026 3.74963 4.5412 3.74963 4.37535C3.74963 4.2095 3.81552 4.05044 3.93279 3.93316C4.05007 3.81588 4.20913 3.75 4.37498 3.75C4.54083 3.75 4.69989 3.81588 4.81717 3.93316L9.99998 9.11675L15.1828 3.93316C15.3001 3.81588 15.4591 3.75 15.625 3.75C15.7908 3.75 15.9499 3.81588 16.0672 3.93316C16.1844 4.05044 16.2503 4.2095 16.2503 4.37535C16.2503 4.5412 16.1844 4.70026 16.0672 4.81753L10.8836 10.0003L16.0672 15.1832Z" fill="white"/>
</svg>
