<svg width="21" height="20" viewBox="0 0 21 20" fill="none" xmlns="http://www.w3.org/2000/svg">
<g clip-path="url(#clip0_37_910)">
<mask id="mask0_37_910" style="mask-type:luminance" maskUnits="userSpaceOnUse" x="0" y="-1" width="21" height="22">
<path d="M20.5 -0.00976562H0.50293V20.0088H20.5V-0.00976562Z" fill="white"/>
</mask>
<g mask="url(#mask0_37_910)">
<path d="M4.6629 10.0728C4.6629 9.41834 4.77217 8.79124 4.96755 8.20292L1.54348 5.61133C0.854664 6.99749 0.497573 8.52488 0.500012 10.0728C0.500012 11.6755 0.874665 13.1876 1.54177 14.5296L4.96413 11.9341C4.76437 11.3338 4.66241 10.7052 4.66217 10.0725" fill="#FBBC05"/>
</g>
<path d="M10.6766 4.12191C12.0408 4.11923 13.364 4.58754 14.4231 5.44856L17.3833 2.51891C15.5793 0.963707 13.266 0.00195312 10.6766 0.00195312C6.65541 0.00195312 3.19866 2.28158 1.54346 5.61076L4.96972 8.20284C5.75854 5.82882 8.00743 4.12167 10.6778 4.12167" fill="#EA4335"/>
<path d="M10.72 15.8891C8.03645 15.8891 5.77634 14.1929 4.9824 11.834L1.54126 14.4095C3.20427 17.7191 6.67761 19.9832 10.72 19.9832C13.2138 19.9832 15.5949 19.1156 17.3828 17.4894L14.1153 15.0144C13.194 15.5832 12.0332 15.8898 10.7195 15.8898" fill="#34A853"/>
<path d="M20.4815 9.97805C20.4815 9.38656 20.3884 8.74921 20.2491 8.1582H10.7191V12.0245H16.2047C15.9311 13.3433 15.1849 14.3561 14.1161 15.0156L17.3831 17.4906C19.2608 15.7827 20.4818 13.2399 20.4818 9.97805" fill="#4285F4"/>
</g>
<defs>
<clipPath id="clip0_37_910">
<rect width="20" height="20.0185" fill="white" transform="translate(0.5 -0.00976562)"/>
</clipPath>
</defs>
</svg>
