<svg width="13" height="16" viewBox="0 0 13 16" fill="none" xmlns="http://www.w3.org/2000/svg">
<path d="M10.193 0C8.89376 0 7.84075 1.05301 7.84075 2.35223C7.84075 2.55373 7.87289 2.80464 7.92072 2.99125L3.72357 5.92055C3.348 5.66651 2.83914 5.48853 2.35223 5.48853C1.05301 5.48853 0 6.54154 0 7.84075C0 9.13996 1.05301 10.193 2.35223 10.193C2.84776 10.193 3.33702 10.0087 3.71651 9.74763L7.9223 12.7004C7.87055 12.8941 7.84075 13.1191 7.84075 13.3293C7.84075 14.6285 8.89376 15.6815 10.193 15.6815C11.4922 15.6815 12.5452 14.6285 12.5452 13.3293C12.5452 12.0301 11.4922 10.9771 10.193 10.9771C9.69744 10.9771 9.21446 11.1558 8.83575 11.4177L4.61898 8.46724C4.66994 8.27357 4.70445 8.05088 4.70445 7.84075C4.70445 7.63062 4.67465 7.40403 4.6229 7.21037L8.82946 4.26851C9.20503 4.52176 9.70607 4.70445 10.193 4.70445C11.4922 4.70445 12.5452 3.65144 12.5452 2.35223C12.5452 1.05301 11.4922 0 10.193 0ZM10.193 1.56815C10.6258 1.56815 10.9771 1.91942 10.9771 2.35223C10.9771 2.78503 10.6258 3.1363 10.193 3.1363C9.76017 3.1363 9.4089 2.78503 9.4089 2.35223C9.4089 1.91942 9.76017 1.56815 10.193 1.56815ZM2.35223 7.05668C2.78503 7.05668 3.1363 7.40794 3.1363 7.84075C3.1363 8.27356 2.78503 8.62483 2.35223 8.62483C1.91942 8.62483 1.56815 8.27356 1.56815 7.84075C1.56815 7.40794 1.91942 7.05668 2.35223 7.05668ZM10.193 12.5452C10.6258 12.5452 10.9771 12.8965 10.9771 13.3293C10.9771 13.7621 10.6258 14.1134 10.193 14.1134C9.76017 14.1134 9.4089 13.7621 9.4089 13.3293C9.4089 12.8965 9.76017 12.5452 10.193 12.5452Z" fill="currentColor"/>
</svg>
